<?xml version="1.0" standalone="no"?><!DOCTYPE svg PUBLIC "-//W3C//DTD SVG 1.1//EN" "http://www.w3.org/Graphics/SVG/1.1/DTD/svg11.dtd"><svg class="icon" width="200px" height="200.00px" viewBox="0 0 1024 1024" version="1.1" xmlns="http://www.w3.org/2000/svg"><path d="M518.144 196.744533C518.144 89.975467 424.618667 0.682667 310.954667 0.682667c-115.882667 0.341333-209.681067 87.9616-210.056534 196.096 0 74.717867 43.6224 138.922667 108.6464 172.100266-62.020267 36.420267-126.498133 89.9072-165.205333 136.6016-31.5392 36.181333-20.1728 89.736533 18.8416 120.7296 42.018133 33.4848 102.058667 31.709867 157.696-12.1856 84.855467-81.851733 73.386667-71.3728 85.0944-76.049066 5.905067-2.286933 12.9024-1.809067 30.0032 4.266666 15.36 5.5296 45.397333 31.470933 85.333333 74.24l22.596267 24.576c10.274133 11.434667 47.650133 53.6576 55.637333 62.464 20.48 22.698667 34.030933 36.5568 41.6768 42.427734 10.786133 11.332267 20.5824 41.028267 26.965334 81.92 2.833067 18.670933 4.983467 38.673067 6.485333 60.757333l2.730667 42.769067 0.136533 2.048c-5.563733 52.360533 40.277333 88.200533 96.597333 89.258666 57.412267 1.1264 106.837333-33.450667 112.64-90.8288 6.144-58.026667 2.8672-120.285867-9.489066-163.259733a251.118933 251.118933 0 0 0-5.7344-18.3296c16.657067 17.6128 29.457067 35.362133 35.7376 50.551467 18.432 64.512 118.647467 73.1136 162.952533 31.744 48.3328-45.056 35.84-130.730667-30.139733-198.075734-88.200533-91.272533-139.605333-125.0304-229.376-166.775466a333.653333 333.653333 0 0 1-41.437867-25.156267c13.243733-9.864533 26.180267-20.002133 38.8096-30.344533 50.244267-41.1648 85.777067-78.4384 100.7616-112.298667 30.037333-46.1824 17.749333-101.2736-23.722667-134.690133-43.793067-35.362133-105.745067-34.679467-149.367466 12.014933-19.8656 26.282667-45.738667 53.930667-74.308267 81.032533a939.008 939.008 0 0 1-36.9664 33.143467 312.046933 312.046933 0 0 1-42.530133 16.145067 187.630933 187.630933 0 0 0 36.181333-110.728534v-0.068266z m-344.917333 0c0.341333-70.8608 61.781333-128.238933 137.728-128.6144 73.489067 0 134.929067 58.709333 134.929066 128.6144 0 71.509333-60.450133 128.546133-134.929066 128.546134a141.755733 141.755733 0 0 1-97.723734-37.341867c-25.9072-24.1664-40.277333-57.002667-40.004266-91.204267zM109.9776 574.839467c-11.195733-9.0112-13.994667-21.879467-9.147733-27.4432 40.277333-48.3328 114.346667-107.042133 174.592-136.3968 8.874667-3.9936 18.158933-7.0656 27.7504-9.216 7.2704-1.3312 14.677333-2.184533 22.016-2.6624l13.073066-1.024a601.668267 601.668267 0 0 0 158.72-24.132267c23.005867-6.485333 45.329067-15.018667 66.4576-25.531733l6.007467-3.925334v-0.2048l0.955733-0.682666 2.56-2.184534c13.653333-11.605333 26.999467-23.620267 40.004267-36.010666 31.095467-29.354667 59.323733-59.5968 79.530667-86.528 13.755733-14.677333 30.242133-14.882133 45.329066-2.6624 16.247467 13.073067 20.3776 32.6656 8.362667 49.834666l-3.549867 6.587734c-15.530667 38.570667-90.077867 99.7376-152.541866 141.312a33.28 33.28 0 0 0-15.018667 25.326933 32.631467 32.631467 0 0 0 11.4688 26.862933c5.8368 5.085867 15.1552 12.6976 27.511467 21.845334 19.933867 14.848 41.1648 28.125867 63.5904 39.5264 82.978133 38.673067 127.351467 67.822933 208.896 152.1664 42.734933 43.690667 49.493333 89.361067 32.529066 105.130666-9.079467 8.3968-39.867733 5.802667-43.008-4.676266-17.442133-43.349333-56.490667-86.186667-102.365866-121.207467l-6.792534-4.096a305.595733 305.595733 0 0 0-23.074133-10.717867 172.475733 172.475733 0 0 0-49.322667-12.663466c-15.1552-1.365333-29.627733 6.280533-36.1472 19.114666a32.085333 32.085333 0 0 0 6.997334 38.229334c6.144 5.666133 35.7376 73.386667 41.984 96.597333 9.966933 34.884267 12.834133 89.1904 7.4752 139.810133-2.013867 19.694933-17.237333 30.378667-39.150934 29.934934-18.670933-0.341333-27.4432-7.338667-25.941333-16.315734v-9.898666l-0.238933-2.6624c-0.2048-2.6624-1.774933-30.958933-2.628267-42.222934a863.300267 863.300267 0 0 0-7.168-65.877333c-8.192-53.384533-21.1968-92.740267-47.650133-120.081067-13.243733-11.946667-25.668267-24.712533-37.1712-38.161066-7.714133-8.533333-45.090133-50.688-55.739734-62.3616-8.362667-9.352533-16.008533-17.749333-23.381333-25.6-48.469333-51.780267-83.182933-81.851733-114.005333-92.842667-32.836267-11.707733-57.856-13.550933-83.729067-3.413333-16.452267 6.485333-31.0272 16.861867-50.312533 34.474666-10.24 9.352533-55.739733 53.828267-56.251734 54.5792-26.589867 20.821333-47.172267 21.333333-61.44 10.001067v0.068267z" fill="#775979" /><path d="M481.962667 990.378667H0l60.245333-112.469334L0 821.691733l60.245333-56.2176 180.804267-56.251733 240.913067 281.156267z m-125.269334-56.2176l-136.533333-159.163734-127.3856 39.594667-7.5776 7.099733 48.366933 45.1584-36.078933 67.3792h259.140267l0.068266-0.068266z" fill="#775979" /></svg>