<?xml version="1.0" standalone="no"?><!DOCTYPE svg PUBLIC "-//W3C//DTD SVG 1.1//EN" "http://www.w3.org/Graphics/SVG/1.1/DTD/svg11.dtd"><svg class="icon" width="200px" height="200.00px" viewBox="0 0 1024 1024" version="1.1" xmlns="http://www.w3.org/2000/svg"><path d="M507.775 872.326l-190.59-266.6c-79.413-77.142-117.984-157.69-117.984-245.043 0-164.498 135-297.23 300.633-297.23s300.633 133.867 300.633 297.23c0 74.874-28.362 146.346-80.547 201.934L507.775 872.326z m-6.806-741.94c-128.195 0-232.565 103.237-232.565 229.163 0 70.337 31.765 133.867 98.698 198.53l2.269 2.27 137.27 192.859 163.363-235.969c40.84-43.11 63.53-98.699 63.53-156.555-1.135-127.061-104.372-230.297-232.565-230.297z"  /><path d="M497.565 495.683c-79.412 0-144.076-63.53-144.076-142.942s64.665-142.943 144.076-142.943 144.077 63.53 144.077 142.943-64.665 142.942-144.077 142.942z m0-217.816c-41.975 0-76.009 34.034-76.009 74.874s34.034 74.874 76.01 74.874 76.008-34.034 76.008-74.874-34.034-74.874-76.009-74.874zM515.717 959.68c-163.363 0-339.205-41.976-339.205-136.136h68.068c0 17.016 93.026 68.068 271.137 68.068s271.136-49.916 271.136-68.068h68.068c0 94.16-175.842 136.135-339.204 136.135z"  /></svg>